<svg width="909" height="250" viewBox="0 0 909 250" fill="none" xmlns="http://www.w3.org/2000/svg">
<g clip-path="url(#clip0_250_18480)">
<path d="M327.24 41.6956H306.463H270.103H249.326V78.125H270.103V208.362H306.463V78.125H327.24V41.6956Z" fill="#FEFAF5"/>
<path d="M368.794 41.6956V208.362H332.434V41.6956H368.794Z" fill="#FEFAF5"/>
<path d="M659.674 0H623.314V36.4583H659.674V0Z" fill="#FEFAF5"/>
<path d="M659.674 41.7881H623.314V208.27H659.674V41.7881Z" fill="#FEFAF5"/>
<path d="M415.543 0L415.508 61.3368C414.908 50.3646 405.859 41.6667 394.766 41.6667C383.673 41.6667 373.989 50.9838 373.989 62.5V187.5C373.989 199.016 383.281 208.333 394.766 208.333C406.251 208.333 415.543 199.016 415.543 187.5V208.304H451.903L451.938 0H415.543ZM412.946 177.083C411.509 177.083 410.349 175.92 410.349 174.479V75.5208C410.349 74.0799 411.509 72.9167 412.946 72.9167C414.383 72.9167 415.543 74.0799 415.543 75.5208V174.479C415.543 175.92 414.383 177.083 412.946 177.083Z" fill="#FEFAF5"/>
<path d="M706.423 41.7881V62.4999C706.423 50.839 696.894 41.4351 685.213 41.6724C673.532 41.9096 664.869 51.4814 664.869 62.8819V187.506C664.869 199.01 674.086 208.31 685.646 208.31C697.206 208.31 706.423 199.045 706.423 187.506V213.547H680.452V250.006H703.826C725.244 250.006 742.783 232.65 742.783 211.233V41.7881H706.423ZM703.826 177.083C702.389 177.083 701.229 175.92 701.229 174.479V75.5207C701.229 74.0798 702.389 72.9166 703.826 72.9166C705.263 72.9166 706.423 74.0798 706.423 75.5207V174.479C706.423 175.92 705.263 177.083 703.826 177.083Z" fill="#FEFAF5"/>
<path d="M784.337 62.4999C784.337 50.839 793.866 41.4351 805.547 41.6724C817.228 41.9096 825.891 51.4814 825.891 62.8819V208.339H789.531V75.5265C789.531 74.0856 788.371 72.9224 786.934 72.9224C785.497 72.9224 784.337 74.0856 784.337 75.5265V208.339H747.977V41.7881H784.337V62.4999Z" fill="#FEFAF5"/>
<path d="M38.9571 41.6667C15.9118 41.6667 0 57.2917 0 78.1251V98.9584H36.36V75.5209C36.36 74.0799 37.5201 72.9167 38.9571 72.9167C40.3942 72.9167 41.5543 74.0799 41.5543 75.5209V130.208C41.5543 118.548 31.1657 109.381 20.7771 109.381C9.40743 109.381 0 119.19 0 130.59V187.124C0 198.524 9.40743 208.333 20.7771 208.333C31.1657 208.333 41.5543 199.161 41.5543 187.506V208.339H77.9143V78.3276C77.9143 57.2975 62.3314 41.6725 38.9571 41.6725V41.6667ZM38.9571 177.083C37.5201 177.083 36.36 175.92 36.36 174.479V143.229C36.36 141.788 37.5201 140.625 38.9571 140.625C40.3942 140.625 41.5543 141.788 41.5543 143.229V174.479C41.5543 175.92 40.3942 177.083 38.9571 177.083Z" fill="#FEFAF5"/>
<path d="M618.12 140.625C618.12 123.351 601.856 109.375 581.76 109.375H576.566V75.5209C576.566 74.0799 577.726 72.9167 579.163 72.9167C580.6 72.9167 581.76 74.0799 581.76 75.5209V98.8774H618.12V78.1251C618.12 57.2917 602.537 41.6667 579.163 41.6667C555.788 41.6667 540.206 57.2917 540.206 78.1251V98.9584C540.206 121.991 556.469 140.625 576.566 140.625L581.76 140.596V174.479C581.76 175.92 580.6 177.083 579.163 177.083C577.726 177.083 576.566 175.92 576.566 174.479V151.094H540.206V171.846C540.206 192.679 555.788 208.304 579.163 208.304C602.537 208.304 618.12 192.679 618.12 171.846V140.625Z" fill="#FEFAF5"/>
<path d="M909 140.625C909 123.351 892.736 109.375 872.64 109.375H867.446V75.5209C867.446 74.0799 868.606 72.9167 870.043 72.9167C871.48 72.9167 872.64 74.0799 872.64 75.5209V98.8774H909V78.1251C909 57.2917 893.417 41.6667 870.043 41.6667C846.669 41.6667 831.086 52.0834 831.086 72.9167V98.9584C831.086 121.991 847.35 140.625 867.446 140.625L872.64 140.596V174.479C872.64 175.92 871.48 177.083 870.043 177.083C868.606 177.083 867.446 175.92 867.446 174.479V151.094H831.086V171.846C831.086 192.679 846.669 208.304 870.043 208.304C893.417 208.304 909 192.679 909 171.846V140.625Z" fill="#FEFAF5"/>
<path d="M535.011 140.625V78.1251C535.011 57.2917 519.429 41.6667 496.089 41.6667C472.749 41.6667 457.097 57.2917 457.097 78.1251V171.875C457.097 192.708 472.68 208.333 496.089 208.333C519.498 208.333 535.011 192.708 535.011 171.875V151.042H498.709V174.479C498.709 175.92 497.549 177.083 496.112 177.083H496.089C494.652 177.083 493.492 175.92 493.492 174.479V140.625H535.011ZM493.457 119.792V75.5209C493.457 74.0799 494.617 72.9167 496.054 72.9167C497.491 72.9167 498.651 74.0799 498.651 75.5209V119.792H493.457Z" fill="#FEFAF5"/>
<path d="M202.577 174.479V41.6956H166.217V166.667C166.217 189.699 183.641 208.333 205.174 208.333C226.708 208.333 244.132 189.699 244.132 166.667V41.6956H207.772V174.479C207.772 175.92 206.612 177.083 205.174 177.083C203.737 177.083 202.577 175.92 202.577 174.479Z" fill="#FEFAF5"/>
<path d="M161.023 78.1251C161.023 57.2917 145.44 41.6667 122.066 41.6667C98.6913 41.6667 83.1084 57.2917 83.1084 78.1251V171.875C83.1084 192.708 93.497 208.333 114.274 208.333C129.857 208.333 140.246 192.708 140.246 171.875V208.333H161.023V109.375H124.663V125H145.44L124.663 130.208V174.479C124.663 175.92 123.503 177.083 122.066 177.083C120.628 177.083 119.468 175.92 119.468 174.479V75.5209C119.468 74.0799 120.628 72.9167 122.066 72.9167C123.503 72.9167 124.663 74.0799 124.663 75.5209V98.9584H161.023V78.1251Z" fill="#FEFAF5"/>
</g>
<defs>
<clipPath id="clip0_250_18480">
<rect width="909" height="250" fill="white"/>
</clipPath>
</defs>
</svg>
