<svg xmlns="http://www.w3.org/2000/svg" width="184" height="51" viewBox="0 0 184 51" fill="none"><g clip-path="url(#clip0_250_27874)"><path d="M66.2399 8.50708H62.0342H54.6742H50.4685V15.9375H54.6742V42.5071H62.0342V15.9375H66.2399V8.50708Z" fill="#0046FE"></path><path d="M74.6515 8.50708V42.5071H67.2915V8.50708H74.6515Z" fill="#0046FE"></path><path d="M133.531 0H126.171V7.4375H133.531V0Z" fill="#0046FE"></path><path d="M133.531 8.52478H126.171V42.4858H133.531V8.52478Z" fill="#0046FE"></path><path d="M84.1143 0L84.1073 12.5127C83.9846 10.2744 82.1551 8.5 79.9086 8.5C77.662 8.5 75.7029 10.4019 75.7029 12.75V38.25C75.7029 40.5981 77.5849 42.5 79.9086 42.5C82.2323 42.5 84.1143 40.5981 84.1143 38.25V42.4929H91.4743L91.4813 0H84.1143ZM83.5886 36.125C83.2977 36.125 83.0629 35.8877 83.0629 35.5938V15.4062C83.0629 15.1123 83.2977 14.875 83.5886 14.875C83.8795 14.875 84.1143 15.1123 84.1143 15.4062V35.5938C84.1143 35.8877 83.8795 36.125 83.5886 36.125Z" fill="#0046FE"></path><path d="M142.994 8.52475V12.75C142.994 10.37 141.067 8.45392 138.701 8.49996C136.398 8.546 134.583 10.501 134.583 12.8279V38.25C134.583 40.5981 136.447 42.4929 138.788 42.4929C141.13 42.4929 142.994 40.6016 142.994 38.25V43.5625H137.737V51H142.468C146.804 51 150.354 47.4583 150.354 43.0914V8.52475H142.994ZM142.468 36.125C142.178 36.125 141.943 35.8877 141.943 35.5937V15.4062C141.943 15.1122 142.178 14.875 142.468 14.875C142.759 14.875 142.994 15.1122 142.994 15.4062V35.5937C142.994 35.8877 142.759 36.125 142.468 36.125Z" fill="#0046FE"></path><path d="M158.766 12.75C158.766 10.37 160.693 8.45392 163.059 8.49996C165.362 8.546 167.177 10.501 167.177 12.8279V42.5H159.817V15.4062C159.817 15.1122 159.582 14.875 159.291 14.875C159.001 14.875 158.766 15.1122 158.766 15.4062V42.5H151.406V8.52475H158.766V12.75Z" fill="#0046FE"></path><path d="M7.88571 8.5C3.22088 8.5 0 11.6875 0 15.9375V20.1875H7.36V15.4062C7.36 15.1123 7.59482 14.875 7.88571 14.875C8.17661 14.875 8.41143 15.1123 8.41143 15.4062V26.5625C8.41143 24.1825 6.30857 22.3125 4.20571 22.3125C1.90309 22.3125 0 24.3135 0 26.6404V38.1721C0 40.499 1.90309 42.5 4.20571 42.5C6.30857 42.5 8.41143 40.63 8.41143 38.25V42.5H15.7714V15.9765C15.7714 11.6875 12.6171 8.5 7.88571 8.5ZM7.88571 36.125C7.59482 36.125 7.36 35.8877 7.36 35.5938V29.2188C7.36 28.9248 7.59482 28.6875 7.88571 28.6875C8.17661 28.6875 8.41143 28.9248 8.41143 29.2188V35.5938C8.41143 35.8877 8.17661 36.125 7.88571 36.125Z" fill="#0046FE"></path><path d="M125.12 28.6875C125.12 25.1635 121.829 22.3125 117.76 22.3125H116.709V15.4062C116.709 15.1123 116.943 14.875 117.234 14.875C117.525 14.875 117.76 15.1123 117.76 15.4062V20.1698H125.12V15.9375C125.12 11.6875 121.966 8.5 117.234 8.5C112.503 8.5 109.349 11.6875 109.349 15.9375V20.1875C109.349 24.8873 112.64 28.6875 116.709 28.6875L117.76 28.6804V35.5938C117.76 35.8877 117.525 36.125 117.234 36.125C116.943 36.125 116.709 35.8877 116.709 35.5938V30.8231H109.349V35.0554C109.349 39.3054 112.503 42.4929 117.234 42.4929C121.966 42.4929 125.12 39.3054 125.12 35.0554V28.6875Z" fill="#0046FE"></path><path d="M184 28.6875C184 25.1635 180.709 22.3125 176.64 22.3125H175.589V15.4062C175.589 15.1123 175.823 14.875 176.114 14.875C176.405 14.875 176.64 15.1123 176.64 15.4062V20.1698H184V15.9375C184 11.6875 180.846 8.5 176.114 8.5C171.383 8.5 168.229 10.625 168.229 14.875V20.1875C168.229 24.8873 171.519 28.6875 175.589 28.6875L176.64 28.6804V35.5938C176.64 35.8877 176.405 36.125 176.114 36.125C175.823 36.125 175.589 35.8877 175.589 35.5938V30.8231H168.229V35.0554C168.229 39.3054 171.383 42.4929 176.114 42.4929C180.846 42.4929 184 39.3054 184 35.0554V28.6875Z" fill="#0046FE"></path><path d="M108.297 28.6875V15.9375C108.297 11.6875 105.143 8.5 100.418 8.5C95.6939 8.5 92.5256 11.6875 92.5256 15.9375V35.0625C92.5256 39.3125 95.6799 42.5 100.418 42.5C105.157 42.5 108.297 39.3125 108.297 35.0625V30.8125H100.948V35.5938C100.948 35.8877 100.713 36.125 100.422 36.125H100.418C100.127 36.125 99.8926 35.8877 99.8926 35.5938V28.6875H108.297ZM99.8856 24.4375V15.4062C99.8856 15.1123 100.12 14.875 100.411 14.875C100.702 14.875 100.937 15.1123 100.937 15.4062V24.4375H99.8856Z" fill="#0046FE"></path><path d="M41.0058 35.5937V8.50708H33.6458V34C33.6458 38.6998 37.1715 42.5 41.5315 42.5C45.8914 42.5 49.4172 38.6998 49.4172 34V8.50708H42.0572V35.5937C42.0572 35.8877 41.8224 36.125 41.5315 36.125C41.2406 36.125 41.0058 35.8877 41.0058 35.5937Z" fill="#0046FE"></path><path d="M32.5942 15.9375C32.5942 11.6875 29.4399 8.5 24.7085 8.5C19.977 8.5 16.8228 11.6875 16.8228 15.9375V35.0625C16.8228 39.3125 18.9256 42.5 23.1313 42.5C26.2856 42.5 28.3885 39.3125 28.3885 35.0625V42.5H32.5942V22.3125H25.2342V25.5H29.4399L25.2342 26.5625V35.5938C25.2342 35.8877 24.9994 36.125 24.7085 36.125C24.4176 36.125 24.1828 35.8877 24.1828 35.5938V15.4062C24.1828 15.1123 24.4176 14.875 24.7085 14.875C24.9994 14.875 25.2342 15.1123 25.2342 15.4062V20.1875H32.5942V15.9375Z" fill="#0046FE"></path></g><defs><clipPath id="clip0_250_27874"><rect width="184" height="51" fill="white"></rect></clipPath></defs></svg>