<svg width="68" height="82" viewBox="0 0 68 82" fill="none" xmlns="http://www.w3.org/2000/svg">
<path d="M57.5704 32.6985C60.3314 35.7318 59.4998 38.2872 56.8829 40.5982C59.0784 42.1982 61.2184 43.4648 62.9815 45.1203C68.6143 50.4312 68.3149 56.9087 62.1499 61.6085C60.1762 63.1196 59.1671 64.3084 59.7437 67.0972C60.5421 70.9415 57.7589 73.5192 54.8982 75.4524C46.5931 81.0744 37.2346 82.4744 27.4991 81.3633C24.1061 80.9744 20.6798 79.8856 17.5529 78.4857C11.3657 75.7191 9.29221 70.5193 14.1821 64.7862C5.37806 56.9198 4.63513 53.2977 10.5562 46.0758C9.93531 45.7202 9.35875 45.3536 8.74889 45.0647C7.83966 44.6314 6.85278 44.3425 5.9879 43.8536C3.47087 42.4315 0.831864 40.876 0.687717 37.6428C0.554658 34.5873 3.04951 32.9652 5.3226 31.5986C7.47372 30.2986 9.85772 29.3876 12.4191 28.1765C10.9333 27.0765 9.53615 26.0988 8.21665 25.0322C4.50208 22.0434 1.27541 18.4658 1.88527 13.4215C2.53947 7.96616 6.81954 5.16628 11.5542 3.43301C22.4872 -0.566831 33.5755 0.144233 44.5972 3.06634C51.5052 4.8996 57.9364 7.73283 63.0813 12.966C69.4903 19.4879 68.5145 26.6877 60.5864 31.1208C59.7105 31.6097 58.8123 32.0541 57.5593 32.7208L57.5704 32.6985Z" fill="#0046FE"/>
</svg>
