<svg width="89" height="62" viewBox="0 0 89 62" fill="none" xmlns="http://www.w3.org/2000/svg">
<path d="M43.3496 9.7624C43.9262 9.61796 44.3143 8.24023 44.7578 7.32916C45.5562 5.54034 46.41 3.67374 47.8515 2.25157C50.5126 -0.537213 54.4268 0.0627733 56.844 3.12932C59.1393 5.67367 60.2703 9.12909 62.4214 11.7734C62.9536 12.0845 63.4304 11.3734 63.7409 10.929C66.1249 7.32915 69.2518 3.37375 73.6982 2.56267C81.0386 1.26272 85.7622 9.34018 87.5474 15.4399C90.6299 27.6395 88.9445 41.2945 81.4045 51.683C78.8542 55.0828 74.685 57.8939 70.3938 57.2272C68.0431 56.8828 65.7035 55.4828 63.7298 52.8607C63.2309 52.3163 62.8871 51.1941 62.0888 51.1386C61.6009 51.1386 60.991 51.783 60.5697 52.183C55.957 56.705 52.697 56.1162 48.6387 50.1719C48.0843 49.5164 47.8182 48.4942 46.9422 48.2276C46.6761 48.2276 46.4322 48.5164 46.1882 48.9386C44.1812 52.5607 42.3073 56.3606 39.1361 59.1271C34.7895 63.0048 28.9681 62.527 25.2758 57.4605C23.6014 55.3384 22.9362 53.0718 21.6943 50.7941C20.3859 49.2386 17.891 51.3052 16.2499 51.1941C13.5999 51.5163 11.0052 50.8719 8.77648 49.5164C-2.9438 41.8723 -1.94586 22.8841 6.62536 13.3956C11.2381 8.09579 19.0774 6.41809 24.932 11.3623C25.6971 11.9956 26.6618 12.2512 27.5045 11.6401C29.9772 9.92906 32.2503 7.89578 35.0778 7.02915C37.6835 6.20696 40.3225 7.39582 42.2297 9.20687C42.6178 9.54019 42.9615 9.7846 43.2498 9.77349L43.3718 9.75128L43.3496 9.7624Z" fill="#0046FE"/>
</svg>
