<svg width="72" height="56" viewBox="0 0 72 56" fill="none" xmlns="http://www.w3.org/2000/svg">
<path d="M65.1088 55.9345C58.0124 53.4235 51.2929 51.0236 44.5623 48.6792C32.8531 44.6127 20.7669 43.1572 8.44789 43.7239C5.6093 43.8572 4.11238 43.335 3.55797 40.1907C2.8705 36.3242 1.6397 32.5354 0.386731 28.7911C-0.134417 27.2245 0.30912 26.6134 1.60645 26.0579C5.88651 24.2469 10.1555 22.4136 14.7571 20.4359C11.1423 19.4026 7.7715 18.436 3.99041 17.3582C5.89759 11.5918 7.71606 6.08089 9.60106 0.358887C24.7476 5.29203 39.9385 6.9253 55.6395 4.19207C56.3602 7.52527 57.0144 10.5474 57.7241 13.7806H66.5725C66.3063 19.7804 66.0624 25.5135 65.7852 31.6243H52.5569C52.5237 31.8466 52.4793 32.0799 52.446 32.3021C55.9056 33.5687 59.3651 34.8242 62.8136 36.1019C65.2197 36.9908 67.648 37.8352 69.9877 38.8907C70.5532 39.1463 71.2517 40.3462 71.0743 40.8129C69.1782 45.8682 67.1269 50.868 65.0977 55.9345H65.1088Z" fill="#0046FE"/>
</svg>
