<svg width="110" height="76" viewBox="0 0 110 76" fill="none" xmlns="http://www.w3.org/2000/svg">
<path d="M70.9845 59.7533C69.9089 63.3087 69.2214 66.7641 67.8243 69.8862C65.9282 74.1305 61.3377 76.0082 56.6585 75.0416C51.824 74.0527 48.3534 70.2307 48.0762 65.5198C47.9874 63.9643 48.0651 62.3976 48.0651 60.2866C47.2556 61.031 46.8121 61.3977 46.424 61.8088C41.9554 66.6975 37.7973 72.0084 31.1222 74.0861C24.2808 76.2082 19.4574 71.6528 21.165 64.6865C21.8303 61.9643 22.8393 59.32 23.6376 56.809C20.3555 58.5422 17.151 60.4422 13.7691 61.931C12.0726 62.6754 10.0546 62.7421 8.15846 62.9754C3.20201 63.6087 0.740414 59.6866 0.751502 55.8423C0.773679 49.9648 3.15766 45.2983 7.94778 42.3095C12.4274 39.5096 17.395 37.5208 22.1629 35.1987C22.928 34.8209 23.7707 34.5987 24.3584 34.3765C19.9896 33.3432 15.521 32.4988 11.1966 31.1988C7.57077 30.11 4.37736 27.8768 2.91371 24.3324C0.574087 18.6993 1.71618 12.044 10.9083 10.833C14.9999 10.2997 19.28 11.1996 23.4713 11.4885C24.1699 11.5329 24.8463 11.7885 25.7555 11.9996C25.4672 10.7885 25.0348 9.83299 25.0791 8.89969C25.1346 7.69974 25.2122 5.99981 25.9551 5.4665C26.7202 4.92207 28.4721 5.15539 29.4922 5.66648C32.608 7.22198 33.8388 10.2441 34.7703 13.3884C34.87 13.7217 34.9477 14.055 35.2138 15.0772C36.5111 12.2662 37.2429 9.78855 38.6844 7.82196C40.3587 5.52205 42.3324 3.08883 44.7497 1.76666C49.1184 -0.61103 53.1878 1.98885 53.4761 6.98866C53.5981 9.13302 53.0548 11.3107 52.7886 13.6995C53.2765 13.3106 53.8088 12.9551 54.2745 12.5218C59.874 7.13311 66.5492 3.91102 74.1557 2.49997C74.3331 2.46663 74.5216 2.45551 74.7101 2.45551C77.3824 2.37774 80.4538 2.05553 81.8288 4.82209C83.1926 7.57754 80.8752 9.67746 79.1454 11.4885C76.8723 13.8662 74.3331 15.9772 71.8715 18.2327C75.5972 17.3105 79.2896 16.1105 83.0817 15.5106C88.393 14.6773 93.7265 14.7217 98.8825 16.6883C101.122 17.5438 103.584 18.7993 103.24 21.3548C102.985 23.2436 101.455 25.7324 99.8028 26.5101C94.8575 28.8323 89.5795 30.4544 84.4345 32.3321C84.1129 32.4543 83.7581 32.4988 83.3478 32.9988C85.4103 33.521 87.506 33.9765 89.5462 34.5765C95.7445 36.3764 101.743 38.5986 106.456 43.3206C108.285 45.1539 109.849 47.2871 108.884 49.9315C107.864 52.7202 105.114 53.4869 102.508 53.4202C97.7847 53.298 93.0833 52.7536 88.9585 52.4425C90.9433 54.7535 93.5158 57.5534 95.8776 60.531C98.8492 64.2642 99.4147 68.1863 97.5852 70.6862C95.6337 73.3528 90.8989 74.0527 86.6078 72.4084C80.5203 70.0862 76.207 65.5753 72.0378 60.8421C71.6498 60.4088 71.2506 59.9866 71.0288 59.7422L70.9845 59.7533Z" fill="#0046FE"/>
</svg>
