<svg width="88" height="72" viewBox="0 0 88 72" fill="none" xmlns="http://www.w3.org/2000/svg">
<path d="M39.054 35.706C40.5066 30.5062 34.1641 25.5287 31.5029 21.451C26.3912 15.0069 25.6927 1.14074 36.1489 0.074111C48.9558 -1.23695 60.0662 13.0736 55.9858 25.362C51.7168 40.4059 74.3812 25.5176 84.9815 38.1949C88.3302 41.4947 89.4501 48.0278 84.2165 50.0611C80.4797 51.6721 75.8115 49.6833 72.1081 48.7056C70.0013 48.1167 67.9056 47.4056 65.7545 46.8945C65.3331 46.8278 64.8009 46.739 64.5016 46.9834C63.8806 47.9834 65.2223 49.55 65.5438 50.5944C74.7914 68.8159 58.3365 75.3156 51.373 56.3386C49.8318 52.0721 48.6786 53.7609 48.1907 57.2719C47.7139 60.4718 47.4589 63.8383 45.7402 66.6604C42.07 73.1491 33.9978 73.5713 31.6471 66.0604C30.6713 60.7829 34.8516 55.8386 36.9694 51.2721C38.9986 48.25 38.167 46.8501 35.0179 48.7722C31.8577 50.9055 28.7974 53.2276 25.1493 54.4942C16.6336 58.083 3.95972 54.3942 1.23201 45.1057C-1.38481 32.3729 12.8636 26.2398 23.1535 30.2507C27.2561 31.684 31.137 33.7506 35.1177 35.2839C36.2376 35.6394 37.9674 36.5727 38.9875 35.8061L39.0762 35.706H39.054Z" fill="#0046FE"/>
</svg>
