<svg width="81" height="70" viewBox="0 0 81 70" fill="none" xmlns="http://www.w3.org/2000/svg">
<path d="M24.3439 44.6971C19.7312 44.6971 15.4955 45.3193 11.5259 44.5638C3.64216 43.0638 -0.826399 35.4086 0.615073 27.4422C1.64628 21.7647 4.66228 17.3982 9.00887 13.8872C15.0187 9.04296 23.1131 10.6873 26.9718 17.3982C27.1936 17.7871 27.4486 18.1648 27.8256 18.787C28.8901 15.9982 29.6663 13.3539 30.886 10.9429C32.0835 8.58743 33.5472 6.29862 35.2326 4.26536C38.3262 0.521061 42.4289 -0.456678 46.9418 1.17659C51.6321 2.87653 53.4727 6.90971 53.4727 11.4206C53.4727 16.4093 52.5968 21.3869 52.1976 25.3979C55.1803 23.6979 58.9836 21.2758 63.0197 19.3314C64.938 18.4093 67.2776 18.1426 69.4509 17.9981C75.9486 17.5537 80.4283 21.6758 80.7055 28.1422C81.0159 35.4086 76.9244 40.1751 70.0275 40.5528C68.9519 40.6084 67.8653 40.5528 66.3795 40.5528C68.6415 43.1194 70.8259 45.2082 72.5334 47.6415C73.8197 49.4747 74.7733 51.6413 75.4053 53.8079C76.5141 57.5966 74.5515 61.5298 70.7926 63.852C67.577 65.8297 63.9733 65.563 60.9684 62.5853C58.8284 60.4743 57.143 57.8855 55.2801 55.4967C54.8477 54.9523 54.504 54.3301 54.0604 53.6524C53.9163 56.0634 54.0161 58.3188 53.6058 60.4743C52.9072 64.163 51.0444 65.7519 48.2169 65.563C45.6223 65.3852 43.3824 62.8631 43.0387 59.6521C42.8946 58.2855 42.8391 56.9189 42.695 54.8967C41.941 56.0411 41.5307 56.7522 41.0428 57.4189C38.9693 60.2299 37.0954 63.2075 34.7558 65.763C31.4848 69.3406 27.8145 70.0184 24.2996 68.2629C20.8289 66.5185 18.5115 62.2076 19.4873 57.9855C20.3854 54.0968 22.0154 50.3747 23.346 46.5859C23.5456 46.0082 23.9115 45.4971 24.3328 44.7082L24.3439 44.6971Z" fill="#0046FE"/>
</svg>
