<svg width="92" height="74" viewBox="0 0 92 74" fill="none" xmlns="http://www.w3.org/2000/svg">
<path d="M74.935 58.775C74.6356 67.3191 65.4213 75.7077 54.577 69.7412C52.8805 70.8301 51.062 71.7745 49.5096 73.0522C48.0349 74.2633 47.0148 74.1855 45.8505 72.73C42.9786 69.1413 40.0403 65.6081 36.9466 61.8304C34.0083 64.0192 30.959 66.2969 27.5993 68.7968C24.7052 64.797 21.8777 60.9082 19.0502 57.0084C18.9061 57.0639 18.7508 57.1195 18.6067 57.1751C19.3385 60.3972 20.0703 63.6193 20.8909 67.1747C16.1229 68.5413 11.4215 69.9523 6.66464 71.1634C6.24329 71.2745 5.1123 70.2079 4.95706 69.5412C1.65276 55.6529 -0.531628 41.6645 1.95214 27.3762C2.97226 21.5098 4.23633 15.6878 5.28971 9.82133C5.61127 8.05473 6.26548 7.79918 7.92872 8.36583C10.601 9.28801 13.4285 9.77688 16.1229 10.6435C17.642 11.1324 18.3628 10.7324 19.1611 9.39912C21.8999 4.82152 25.9804 2.25495 31.3471 3.0327C33.8419 3.38824 36.1816 4.95485 38.5545 6.05481C39.1643 6.33257 39.63 6.93255 40.3507 7.54364C40.9939 4.99929 41.5705 2.7216 42.2247 0.132812C47.3585 1.51054 52.3482 2.85493 57.5708 4.26599C56.9609 6.9881 56.3954 9.45467 55.7412 12.3879C59.3006 12.3879 62.6714 12.5546 66.009 12.2546C66.7297 12.1879 67.3063 10.4991 68.2599 9.11024C72.8615 9.62133 78.0064 10.1991 83.2623 10.788C83.107 13.4212 83.0405 15.7878 82.8187 18.1432C81.6101 30.7538 84.7148 42.4201 90.514 53.4752C91.4454 55.2529 91.3456 56.1751 89.4939 57.1195C86.0676 58.875 82.6857 60.7416 79.4257 62.7971C77.9288 63.7526 77.3522 63.3637 76.7091 62.0082C76.188 60.886 75.5116 59.8305 74.9128 58.7528L74.935 58.775Z" fill="#0046FE"/>
</svg>
