<svg width="94" height="80" viewBox="0 0 94 80" fill="none" xmlns="http://www.w3.org/2000/svg">
<path d="M82.5011 72.2934C74.7393 71.149 67.8868 74.1822 60.8347 76.071C59.0384 76.5599 58.0626 76.2821 57.7189 74.3489C57.5526 73.4156 57.1423 72.5378 56.8651 71.6934C55.6897 73.5378 54.8138 75.4711 53.4388 76.9266C49.3029 81.3264 42.0512 80.3264 38.8023 74.9711C38.015 73.6711 37.4718 73.16 35.8196 73.7045C32.4377 74.8266 28.9449 75.5822 25.2081 76.5599C24.3654 74.1822 23.5449 71.8823 22.5913 69.1713C22.0591 70.3602 21.6821 71.1935 21.172 72.349C17.8234 71.1823 14.4747 70.0268 11.1482 68.838C8.74209 67.9714 5.48214 67.6714 4.22917 65.9381C3.23123 64.5493 4.80577 61.3938 5.03862 59.005C6.31377 45.8055 6.77947 32.6838 0.703116 20.3065C0.669851 20.2399 0.736388 20.1288 0.814005 19.7732C5.98113 16.8289 11.2924 13.7846 17.0583 10.4958C18.1449 12.6735 19.1761 14.7401 20.4069 17.2178C21.5047 13.1068 23.434 10.1402 27.3593 8.77363C31.4065 7.36258 34.4779 9.16251 37.6713 11.5957C38.3699 9.11807 39.889 9.21806 41.9625 9.87359C45.8877 11.1291 49.9239 12.0513 54.1485 13.1735C54.4368 12.0735 54.8914 11.0513 54.9357 10.018C55.1908 3.80716 60.8125 -0.35934 66.1792 0.585068C71.934 1.59614 75.0831 7.15148 73.686 13.5401C73.2535 15.4956 73.065 17.5066 73.187 19.6177C73.9521 17.5289 74.6063 15.3845 75.5599 13.3735C75.826 12.8068 77.1566 12.1846 77.6666 12.3957C82.2572 14.229 86.7479 16.3178 91.3384 18.1511C93.2567 18.9177 93.4452 19.8177 92.791 21.7065C88.023 35.4837 85.2177 49.7054 83.3327 64.127C83.1664 65.4048 83.2884 66.7158 83.1664 68.0047C83.0444 69.2824 82.7783 70.5379 82.5011 72.2823V72.2934Z" fill="#0046FE"/>
</svg>
