<svg width="82" height="78" viewBox="0 0 82 78" fill="none" xmlns="http://www.w3.org/2000/svg">
<path d="M81.2293 38.9351C77.0934 41.0683 72.1037 41.2128 67.5907 42.5238C62.3017 43.6682 61.9025 46.0126 64.3862 50.4679C67.9345 57.7121 72.4696 64.5118 76.0954 71.6449C76.7164 73.767 74.7538 73.8671 73.3345 73.0449C68.001 69.9117 62.6897 66.6229 57.4339 63.323C55.2495 62.0342 52.6105 60.012 50.1378 60.012C44.1835 59.8565 44.0615 80.4779 39.9588 76.7669C37.0981 73.667 36.3219 58.3232 30.7223 59.9009C29.4472 60.212 27.8283 61.2231 26.6086 61.9786C20.3992 65.834 14.3339 69.9116 8.2021 73.867C6.00662 75.1003 3.99965 74.3781 5.52983 71.656C9.31092 64.9674 13.3914 58.4565 17.0283 51.6679C19.8669 46.4792 20.0222 43.8682 13.6797 42.4127C11.2403 41.7683 8.51257 41.2461 6.01771 40.7128C4.76474 40.4572 -1.26727 39.4128 1.36065 37.7573C5.72942 36.5574 10.198 35.9352 14.6111 34.7797C20.6764 33.4019 19.1573 29.7021 16.7622 25.1022C13.6021 19.0469 10.0649 13.1027 6.7828 7.08075C6.4058 6.38078 6.11751 5.65857 6.0288 4.88082C5.68507 2.69202 7.80292 3.46975 8.96719 4.16972C14.6887 7.72514 20.3548 11.5583 26.1096 15.0915C28.1499 16.1582 30.9884 18.6136 33.2061 16.9248C34.8915 15.3915 36.0003 12.0917 36.8098 9.71398C37.7523 7.22518 39.8036 -5.17436 42.8196 2.43646C44.4274 6.20298 45.7469 19.3691 51.7346 17.1581C58.9863 13.7582 65.7501 8.71402 72.7024 4.68084C75.0975 3.36978 77.6921 3.18089 75.9956 6.75853C72.3809 13.1472 68.2561 19.1691 64.8076 25.6578C61.9579 30.8354 61.9579 33.9575 68.5333 35.1796C72.4252 35.9463 76.2396 36.7018 80.065 37.624C80.6084 37.7907 81.5287 38.1573 81.2958 38.8351L81.2293 38.9462V38.9351Z" fill="#0046FE"/>
</svg>
