<svg width="84" height="62" viewBox="0 0 84 62" fill="none" xmlns="http://www.w3.org/2000/svg">
<path d="M23.8928 33.1644C20.6107 32.0644 17.4284 31.3867 14.6231 29.9756C6.06293 25.6869 4.9541 15.0206 12.2391 8.55423C17.3175 4.0433 26.3322 2.76556 32.4308 5.73211C36.0566 7.49871 38.0636 10.3097 37.986 14.4762C37.9417 17.0206 37.986 19.5538 37.986 22.6759C40.2591 18.8427 42.0221 15.4873 44.1511 12.3874C47.8767 6.95428 52.5005 2.46558 59.1867 1.02119C63.5222 0.0878962 67.7801 0.476765 71.5168 3.37665C76.7949 7.47649 76.4622 13.5207 70.6631 16.8539C69.2549 17.665 67.7247 18.265 65.7399 19.1982C68.8224 19.5538 71.4503 19.5538 73.9008 20.2315C76.052 20.8315 78.2585 21.8648 79.955 23.287C84.1242 26.7868 84.0022 31.82 79.9772 35.4976C79.3673 36.0532 78.6909 36.5309 78.5912 36.6087C79.3341 40.8085 80.4983 44.5862 80.5649 48.3971C80.6868 55.3302 74.7879 61.4966 68.39 61.841C61.105 62.241 55.5387 56.5746 55.3391 48.1527C45.9806 55.4524 36.6887 57.7745 27.0419 47.686C25.301 49.586 23.5048 51.6525 21.5976 53.5969C19.0251 56.1968 16.0091 58.0412 12.3056 58.6523C7.75944 59.3967 3.39067 57.5301 1.41696 53.8858C-0.590013 50.1637 0.18616 45.7528 3.61243 42.2751C7.6042 38.2308 12.6272 36.3976 18.1491 35.7421C20.4 35.4754 22.6842 35.2754 23.9261 33.1644H23.8928Z" fill="#0046FE"/>
</svg>
