<svg width="84" height="51" viewBox="0 0 84 51" fill="none" xmlns="http://www.w3.org/2000/svg">
<path d="M53.7126 36.0383C53.258 36.0828 53.0252 37.1716 52.6925 37.9827C52.3266 38.9715 51.9385 39.9381 51.495 40.8492C49.7763 45.1602 44.9086 48.3045 40.2959 46.9379C37.4129 46.0268 35.8495 43.2603 34.4634 40.727C34.0975 40.027 33.7316 39.4604 33.3657 39.5937C32.6893 39.9604 32.4454 40.927 31.9575 41.627C30.4939 44.1602 28.2429 46.6712 25.9366 48.1045C11.6217 57.3597 -8.15977 37.0049 4.21471 23.1721C7.30833 19.7611 12.1206 19.2834 15.9572 22.0388C18.1637 23.461 19.328 25.5387 21.1686 26.9497C21.723 27.0609 21.8339 26.372 22.0003 25.8831C24.1957 16.8168 27.1896 7.62829 35.8051 2.59515C40.7394 -0.860268 48.0355 0.995207 49.9094 6.96164C51.5283 11.4059 51.0182 15.5724 51.1402 20.2611C51.4395 21.0944 52.4153 18.8501 52.6814 18.539C55.9303 12.017 62.8937 6.83943 70.3339 8.42826C80.391 10.4171 85.9351 22.9499 82.8193 32.2496C81.3667 36.5716 77.8961 39.9715 73.7048 41.7714C65.566 45.3157 60.4543 42.6269 53.8235 36.0494H53.7016L53.7126 36.0383Z" fill="#0046FE"/>
</svg>
