<svg width="74" height="89" viewBox="0 0 74 89" fill="none" xmlns="http://www.w3.org/2000/svg">
<path d="M68.2021 22.4063C62.8908 21.7063 57.9344 21.0619 52.989 20.4063C52.9336 20.5841 52.8782 20.773 52.8227 20.9508C58.8547 24.995 64.8867 29.0282 71.1516 33.2169C68.4793 37.0057 66.0177 40.5167 63.3455 44.2943C67.315 46.7609 70.3865 50.0941 71.3844 54.8383C72.3824 59.5826 71.2736 63.9602 68.3019 68.0378C70.1315 68.6934 71.7947 69.2822 73.7462 69.9822C71.8058 75.8597 69.9873 81.5151 67.9914 87.1038C67.8473 87.4926 66.3836 87.7815 65.7073 87.5593C57.1915 84.7261 48.3985 83.6594 39.5611 84.6594C32.9526 85.4038 26.4327 87.0815 19.9571 88.6481C18.0056 89.1148 17.174 89.037 16.5309 87.026C15.034 82.3928 13.3818 77.8152 11.6521 73.271C11.0755 71.7599 11.3859 71.1933 12.8718 70.6377C17.2405 69.0045 17.1518 68.9267 17.2849 64.2935C17.4179 59.8715 17.7062 55.4605 17.9613 50.3052C14.9674 51.2718 12.3728 51.9496 9.91119 52.9495C7.7268 53.8384 6.73995 53.4162 5.99704 51.0607C4.59992 46.6942 2.92559 42.4166 1.14038 38.1945C0.275497 36.1613 0.885374 35.4058 2.79255 34.8724C8.86891 33.1725 14.9231 31.3726 21.5649 29.4504C18.1387 28.7171 15.0783 27.7394 11.9625 27.4838C9.04631 27.2505 8.01509 26.0839 7.79333 23.2618C7.47177 19.1508 6.93954 15.0177 6.0303 10.9956C5.47589 8.52902 6.49601 7.80682 8.42537 7.3735C16.8192 5.4958 25.1353 3.02923 33.64 1.91816C45.7262 0.340446 57.89 0.718205 69.9097 3.32922C71.9389 3.77364 72.1717 4.39584 71.7171 6.27355C70.4419 11.5289 69.3997 16.8509 68.2132 22.4174L68.2021 22.4063Z" fill="#0046FE"/>
</svg>
