<svg width="114" height="72" viewBox="0 0 114 72" fill="none" xmlns="http://www.w3.org/2000/svg">
<path d="M88.8501 46.0862C93.3297 42.753 97.8094 39.4198 102.555 35.8866C106.347 41.0419 110.029 46.0528 113.865 51.2638C108.953 54.9747 104.207 58.5635 99.4393 62.1411C97.011 63.9633 94.2168 65.4188 92.1655 67.5965C88.5507 71.4185 84.5035 71.7074 79.7577 70.6408C72.9717 69.1075 66.1081 67.9076 58.8009 66.4743C62.5598 57.6635 66.23 49.0416 69.9003 40.4197C69.6563 40.242 69.4013 40.0642 69.1573 39.8864C67.1282 42.1308 64.9438 44.264 63.1032 46.6528C60.2867 50.2971 57.5923 54.0414 55.0974 57.9079C54.1106 59.4301 53.4453 59.8634 51.904 58.7968C50.7176 57.9635 49.3648 57.3746 47.8014 56.5191C46.8367 58.3301 45.8498 59.9634 45.0626 61.6856C44.2864 63.3966 43.4326 63.841 41.6585 62.8078C37.6002 60.4745 33.4643 58.2524 29.2729 56.1636C27.4434 55.2525 27.1772 54.4525 28.1419 52.5859C31.801 45.4751 35.2606 38.2643 38.7755 31.0868C39.0749 30.4646 39.2523 29.7757 39.4741 29.1202C39.2412 28.9091 39.0084 28.7091 38.7755 28.498C35.9259 31.0534 32.9764 33.5311 30.2376 36.1977C27.3325 39.0309 24.5604 42.0308 21.8216 45.0307C19.1715 47.9417 16.6323 50.9638 13.9711 54.0081C9.30298 50.3527 4.77898 46.8862 0.376946 43.2641C-0.0554954 42.9085 -0.166378 41.3641 0.210623 40.8975C11.188 27.4758 23.0302 14.9763 37.8552 5.69885C42.5455 2.76563 47.5463 0.487942 53.2014 0.0435151C62.0609 -0.645347 66.3077 7.46545 65.088 14.243C64.8884 15.3763 64.6555 16.4984 64.4448 17.6095C67.9931 15.6096 71.3639 13.6097 74.8345 11.8097C75.6883 11.3653 77.03 11.2431 77.917 11.5986C84.6587 14.2652 91.3449 17.0762 98.0422 19.865C98.4414 20.0316 98.7851 20.3094 99.2397 20.5872C95.6028 29.0313 92.0102 37.3532 88.4287 45.6751C88.5618 45.8084 88.6948 45.9417 88.8279 46.0751L88.8501 46.0862Z" fill="#0046FE"/>
</svg>
