<svg width="74" height="89" viewBox="0 0 74 89" fill="none" xmlns="http://www.w3.org/2000/svg">
<path d="M63.3966 5.07734C64.3613 10.1105 65.3703 14.7881 66.0134 19.5101C66.1021 20.1768 64.4167 21.0989 63.5407 21.8989C63.3079 21.7878 63.075 21.6767 62.8422 21.5656C63.0418 23.7433 63.2857 25.921 63.4188 28.1098C63.574 30.6541 64.5608 33.6318 60.436 33.9762C60.5802 34.2984 60.6023 34.4095 60.6467 34.4207C64.3576 35.3243 65.7916 37.6909 64.9489 41.5204C64.6385 42.9537 64.2836 44.3869 64.0397 45.8424C63.6294 48.2423 63.6627 48.2534 60.6023 48.7423C64.6717 50.9311 67.7321 53.7199 68.4528 58.0086C69.1625 62.2307 68.5526 66.3194 64.6939 69.8748C67.843 70.4637 70.4598 70.9637 73.631 71.5637C72.6553 76.619 71.6795 81.6855 70.6594 87.0075C65.7805 86.4742 61.0681 85.6409 56.3334 85.5187C47.2965 85.2854 38.2373 85.0742 29.2226 85.5853C21.7269 86.0075 14.3089 87.5297 6.83543 88.463C6.1036 88.5519 5.03913 88.163 4.55125 87.6075C-0.416284 81.9966 -0.405204 81.9633 5.02804 76.7412C7.02392 74.8302 9.10853 73.0192 11.1488 71.1526C9.76274 69.6082 8.35453 68.0749 6.99068 66.5083C5.67118 64.9861 4.40709 63.4306 2.94344 61.6974C4.60668 60.2419 6.15904 58.8419 7.76684 57.4975C9.29701 56.2198 10.8715 55.0087 12.2021 53.3088C10.9381 53.6866 9.67403 54.0643 7.98861 54.5643C6.92414 51.7311 5.8264 48.8534 4.76193 45.9646C4.5069 45.2758 4.35167 44.5536 4.10773 43.8647C3.07282 40.9982 3.98576 39.0168 6.84653 37.9205C4.15208 33.8096 3.09869 29.4542 5.23872 24.7655C7.32331 20.2101 10.7939 17.588 16.0276 16.688C14.4863 15.8547 12.9561 15.0325 11.1931 14.0881C13.2888 9.67717 15.3734 5.39955 17.3693 1.08861C18.1898 -0.6891 19.1988 0.188644 20.2855 0.666403C29.1339 4.58847 38.3482 6.95505 48.0615 6.74395C52.1753 6.65506 56.2779 5.87731 60.3917 5.42177C61.2898 5.32178 62.188 5.23289 63.3966 5.11068V5.07734Z" fill="#0046FE"/>
</svg>
