<svg width="95" height="76" viewBox="0 0 95 76" fill="none" xmlns="http://www.w3.org/2000/svg">
<path d="M80.9328 11.5171C78.6375 16.1613 76.4975 20.5167 74.2798 25.0165C79.2252 27.272 83.2391 30.2941 84.5364 35.8383C85.7672 41.0937 84.7139 45.8491 81.1989 49.9933C85.8559 51.4377 90.2912 52.8155 94.904 54.2487C92.52 60.1152 90.3578 65.5483 88.0292 70.9037C87.8518 71.3259 86.3771 71.5814 85.7229 71.337C76.7747 68.026 67.4051 67.1816 58.0355 67.2149C42.6007 67.2816 27.5429 70.0815 12.862 74.9035C11.9195 75.2146 10.101 74.9146 9.62425 74.248C6.4641 69.7481 3.55898 65.0594 0.276855 59.9819C5.28874 55.9153 10.2563 51.8822 15.3569 47.7379C12.6624 44.1491 9.95689 40.5604 6.91871 36.5161C14.3478 31.383 21.6772 26.3276 29.0065 21.2722C28.8845 20.9834 28.7626 20.7056 28.6517 20.4167C22.7416 22.6944 16.8316 24.9721 10.6444 27.3498C7.88339 22.1055 5.03371 16.6724 2.00662 10.9171C11.2653 5.79506 20.9453 2.41742 31.2574 0.939697C49.0097 -1.60465 65.254 3.07295 80.9438 11.4948L80.9328 11.5171Z" fill="#0046FE"/>
</svg>
