<svg width="88" height="35" viewBox="0 0 88 35" fill="none" xmlns="http://www.w3.org/2000/svg">
<path d="M26.6063 27.5789C26.3624 25.7012 26.0075 24.1791 26.0075 22.6458C26.0075 20.7903 25.5086 20.2348 23.557 20.7459C17.7135 22.2569 11.8146 23.5569 5.60517 25.0235C3.94194 20.0237 2.16782 14.8461 0.560025 9.61298C0.415878 9.15744 1.30293 7.95748 1.91278 7.7686C15.2741 3.59098 28.8351 0.479998 42.9393 0.257784C54.6596 0.0689029 66.2911 0.691092 78.2221 3.39099C77.7675 6.14644 77.5346 8.97966 76.7695 11.6573C76.2262 13.5795 77.0024 14.1239 78.466 14.6683C81.2714 15.7016 84.0656 16.8016 87.1814 18.0015C84.62 23.5902 82.236 28.79 79.7301 34.2565C62.7207 26.6123 45.1348 24.9568 26.6063 27.6012V27.5789Z" fill="#0046FE"/>
</svg>
