<svg width="110" height="75" viewBox="0 0 110 75" fill="none" xmlns="http://www.w3.org/2000/svg">
<path d="M54.461 61.3785C54.217 61.4008 53.9731 61.5452 53.7291 61.7896C50.3583 65.4673 47.1205 69.456 43.6388 72.9892C42.9735 73.5447 42.0865 74.3113 41.2216 74.3002C40.0351 74.0114 39.7358 72.3337 39.3366 71.3004C38.4163 67.845 37.6512 64.3118 36.7752 60.6119C36.5313 59.4008 35.7662 59.2897 34.7682 59.8453C28.3481 62.9896 22.2385 66.0117 16.14 69.0338C15.0312 69.5893 12.8357 70.2004 12.6804 68.4227C12.6583 67.7672 12.9466 67.0228 13.246 66.4117C15.4525 62.1119 17.8143 57.7898 20.2426 53.1677C21.0632 51.4789 18.6238 52.1233 17.6702 52.09C12.7359 52.2789 7.90141 52.79 2.93388 52.9122C0.427937 52.7789 -0.769594 51.0901 1.54785 49.2679C5.82791 45.9347 10.363 42.7015 14.7207 39.4461C15.641 38.6794 17.9585 37.5573 16.2065 36.3573C12.126 33.3241 8.2008 30.402 4.26447 27.5132C2.98933 26.5688 1.48132 25.8133 0.572087 24.4689C-0.636532 22.8356 1.65873 21.7023 3.10021 21.7134C8.53345 21.8134 14.0443 22.3912 19.4665 22.7245C21.5067 22.7911 18.8455 19.1691 18.524 18.1802C16.8607 15.0137 15.0644 11.7805 13.4345 8.5806C12.0373 5.99181 12.7913 4.49185 15.8739 5.6807C21.8282 8.42503 27.7937 11.4138 33.7148 14.2581C34.8348 14.7915 36.5091 15.8803 36.8417 13.9804C37.7177 10.1694 38.5161 6.43624 39.4364 2.78082C39.7358 1.85864 40.0795 0.503134 41.144 0.314252C41.898 0.258699 42.6409 0.90312 43.2064 1.39199C46.6105 4.91408 49.8815 8.64723 53.3521 12.436C53.8733 13.0693 54.6273 13.5582 55.3148 12.8915C58.6412 9.32499 61.7792 5.55849 65.0281 2.04752C65.9373 1.16977 67.5451 -0.89682 68.7426 0.514236C70.5057 4.79185 70.9159 9.39165 72.2354 14.0359C72.3574 14.4692 72.5459 15.0248 73.0005 15.1248C74.7968 14.9581 76.4933 13.5471 78.1898 12.9026C82.6584 10.7361 87.3598 8.31392 91.9836 6.12512C95.0994 4.63629 97.3503 4.85852 95.4431 8.8917C93.3807 13.0138 91.1076 17.158 88.8234 21.569C88.6793 21.8801 88.6128 22.1578 88.6793 22.3467C88.7902 22.78 89.5885 22.7245 90.021 22.7023C95.299 22.3689 100.034 22.0134 105.123 21.6579C106.432 21.5468 110.789 22.8467 109.359 24.1466C103.526 28.5909 97.9269 32.5352 92.5491 36.5795C92.0945 36.9573 91.8727 37.4017 92.3162 37.9017C97.8271 42.2904 103.626 46.0791 108.949 50.3567C110.479 52.1567 107.019 52.9566 105.733 52.9011C101.353 52.7455 96.9068 52.3345 92.5269 52.0456C91.6399 52.1456 88.147 51.2901 88.7791 53.0233C90.9635 57.3676 93.3031 61.5563 95.4653 65.645C95.8977 66.5006 96.2304 67.5005 96.2082 68.4449C96.1195 70.0338 94.1458 69.4338 93.1479 69.0116C87.1269 66.1672 81.1282 63.1674 75.1405 60.2341C73.9874 59.6231 72.6568 58.9231 72.2576 60.6897C71.2929 64.4007 70.417 68.1005 69.541 71.7337C68.9422 74.1003 67.9221 75.5558 65.7599 73.2892C62.4889 69.8227 59.4396 66.1895 56.2351 62.7229C55.7361 62.2452 55.2926 61.5119 54.6162 61.4008H54.472L54.461 61.3785Z" fill="#0046FE"/>
</svg>
