<svg width="87" height="59" viewBox="0 0 87 59" fill="none" xmlns="http://www.w3.org/2000/svg">
<path d="M53.8078 40.9389C51.1134 43.5054 49.8493 47.9497 47.0551 50.6385C42.0654 56.5049 31.4206 57.9493 28.2383 49.383C27.0408 45.9831 27.695 42.2388 27.9278 38.7501C28.1274 36.9057 27.3291 37.6834 26.6749 38.5167C22.1509 44.261 10.5747 58.6049 2.69099 52.2162C-3.40754 46.2942 4.576 38.3279 7.84703 32.9836C9.32177 30.9171 7.53656 29.406 5.88441 28.206C-5.10405 18.462 8.76735 2.75147 20.1772 1.41819C23.548 0.695998 26.941 1.77373 29.3693 4.36252C33.0063 7.90682 32.7291 13.2622 34.2481 17.7509C35.6231 21.3618 39.0715 18.8509 40.9344 17.2509C43.407 15.2399 45.7799 13.1399 48.175 11.0511C53.3865 6.4402 59.0082 1.49595 66.1934 0.884867C74.3543 0.0848981 84.8882 4.46252 85.6311 13.6399C85.8085 16.6509 84.4335 19.6286 81.9941 21.473C79.5436 23.4062 76.45 23.784 73.9441 25.3839C73.4784 25.7061 73.0237 26.1728 73.1124 26.7505C74.1326 29.1504 77.326 30.306 79.333 31.8615C83.0143 34.0614 86.3518 37.4723 86.8508 41.9166C87.9707 49.8496 82.3046 56.5938 74.5983 57.916C64.7741 60.027 55.0941 53.3273 54.7836 43.1832C54.7503 42.4944 54.6838 40.9055 53.9298 40.9055L53.8189 40.9278L53.8078 40.9389Z" fill="#0046FE"/>
</svg>
