<svg width="97" height="63" viewBox="0 0 97 63" fill="none" xmlns="http://www.w3.org/2000/svg">
<path d="M96.6013 58.4079C91.035 59.6301 85.6683 60.7967 80.3127 62.0189C78.8602 62.3522 78.1061 61.9967 77.7624 60.4523C76.2544 53.6414 74.6688 46.8417 72.6064 39.8531C71.9189 41.6197 71.2203 43.3863 70.5329 45.164C70.1337 46.1973 69.5793 47.1972 69.4019 48.2638C68.6257 52.8192 65.6097 54.1636 61.4405 54.3414C58.7904 54.4525 56.1071 54.8191 53.5457 55.508C51.5609 56.0413 51.1063 55.108 50.7071 53.6414C49.7424 50.1082 48.7666 46.5639 47.7798 43.0307C47.6911 42.7196 47.5248 42.4196 47.303 41.9085V59.1523C41.4151 60.0078 35.2057 60.9078 28.7191 61.8522C28.0205 56.9524 27.4218 52.5192 26.7343 48.0972C26.0468 43.664 25.2596 39.2309 23.9622 34.7088C22.1659 39.7308 20.3696 44.7418 18.5068 49.9527C12.3528 47.7416 6.53152 45.6528 0.499512 43.4863C5.45596 30.8756 8.3389 17.7872 16.0674 6.76545C20.2588 0.799014 26.6345 -1.06758 32.0567 1.96564C32.9992 2.48784 34.1413 3.13226 34.5737 4.01C36.5252 7.98763 39.9737 7.26543 43.2558 6.97656C47.7354 6.57657 52.204 6.04326 57.0052 5.52105C58.114 9.32091 59.1896 13.0319 60.4869 17.4762C61.6179 14.3874 62.5272 11.943 63.4253 9.48757C64.523 6.48768 66.02 3.74335 68.8364 2.0323C74.1809 -1.23424 80.5788 0.576804 83.2289 6.82101C85.5353 12.2764 87.0211 18.1095 88.518 23.8759C91.3122 34.631 93.8625 45.4528 96.4794 56.2524C96.6457 56.9302 96.5681 57.6635 96.6013 58.3968V58.4079Z" fill="#0046FE"/>
</svg>
