<svg width="96" height="88" viewBox="0 0 96 88" fill="none" xmlns="http://www.w3.org/2000/svg">
<path d="M76.9781 46.4681C76.9449 46.7681 77.089 47.1015 77.3219 47.4792C82.1563 55.1012 86.7025 62.0565 91.0048 69.0229C91.415 69.8006 91.9583 70.9672 91.3152 71.6894C90.6278 72.3894 89.2085 72.3005 88.2549 72.0227C81.0032 69.8006 73.7958 67.4451 66.5441 65.0452C64.3597 64.1786 63.0624 64.8675 61.9979 66.8674C58.1725 73.356 54.3027 79.778 50.2887 86.111C48.8472 88.2443 46.8735 88.7554 45.5873 86.1222C42.6933 80.278 40.0432 74.3671 37.2822 68.434C36.3175 66.1007 34.621 66.0896 32.4034 66.4118C24.6194 67.3896 16.8022 68.0229 9.01826 68.8006C6.95585 68.934 2.99734 70.1117 3.90658 66.5785C4.21705 65.7452 4.93778 65.0341 5.5809 64.4008C11.0696 59.1566 16.4917 53.8679 22.1467 48.3903C22.8786 47.7792 23.1779 46.9904 22.2133 46.4904C16.1147 43.2238 10.1603 40.2017 4.06181 37.013C1.32302 35.7575 -1.95911 32.9687 3.0306 31.8909C10.87 30.7021 18.8535 29.7466 26.571 28.6688C27.6022 28.5355 27.9459 27.6467 27.8904 26.7023C27.8904 0.892149 25.5508 3.00317 44.3121 19.6803C45.0994 20.4469 46.1971 21.5024 47.1618 20.3914C52.1959 14.4694 56.8418 8.21409 61.8426 2.25876C62.7962 1.14769 64.648 -0.0856139 65.5683 1.71432C66.0229 2.44762 66.2447 3.33648 66.3888 4.18089C67.3424 9.98067 68.1519 15.7693 68.9835 21.6247C69.172 23.469 70.2032 24.2468 72.0106 24.0468C78.5194 23.8801 85.1391 23.7024 91.6479 23.5135C93.0228 23.5135 95.1296 23.4246 95.8171 24.8023C96.0832 25.7467 95.429 26.9911 94.7526 27.7467C88.9645 33.9909 83.1543 40.5462 76.9892 46.3348L76.967 46.4793L76.9781 46.4681Z" fill="#0046FE"/>
</svg>
